<svg id="Group_2418" data-name="Group 2418" xmlns="http://www.w3.org/2000/svg" width="9.298" height="20.015" viewBox="0 0 9.298 20.015">
  <g id="Group_2417" data-name="Group 2417" transform="translate(0 0)">
    <path id="Path_16548" data-name="Path 16548" d="M335.128,733.434v9.677a.252.252,0,0,0,.252.252h3.593a.252.252,0,0,0,.252-.252v-9.835h2.605a.252.252,0,0,0,.251-.231l.251-2.963a.253.253,0,0,0-.251-.274h-2.856v-2.1a.892.892,0,0,1,.892-.892h2.008a.252.252,0,0,0,.252-.252V723.6a.252.252,0,0,0-.252-.252h-3.393a3.605,3.605,0,0,0-3.605,3.6v2.856h-1.8a.252.252,0,0,0-.252.252v2.963a.252.252,0,0,0,.252.252h1.8Z" transform="translate(-333.079 -723.348)" fill="#fff" fill-rule="evenodd"/>
  </g>
</svg>
