<svg id="Group_2423" data-name="Group 2423" xmlns="http://www.w3.org/2000/svg" width="17.606" height="16.816" viewBox="0 0 17.606 16.816">
  <g id="Group_2421" data-name="Group 2421" transform="translate(0.246 5.212)">
    <g id="Group_2420" data-name="Group 2420">
      <g id="Group_2419" data-name="Group 2419">
        <path id="Path_16549" data-name="Path 16549" d="M515.828,738.988v6.224a.279.279,0,0,1-.279.279h-3.213a.279.279,0,0,1-.279-.279v-5.788c0-1.523-.544-2.563-1.909-2.563a2.062,2.062,0,0,0-1.934,1.379,2.583,2.583,0,0,0-.125.918v6.054a.279.279,0,0,1-.279.279H504.6a.277.277,0,0,1-.279-.279c.007-1.541.04-9.019.006-10.777a.277.277,0,0,1,.279-.281h3.206a.278.278,0,0,1,.279.278v1.329c-.008.012-.019.025-.025.037h.025v-.037a3.742,3.742,0,0,1,3.4-1.873c2.48,0,4.34,1.62,4.34,5.1Zm-17.082,6.5h3.212a.279.279,0,0,0,.279-.279V734.43a.278.278,0,0,0-.279-.278h-3.212a.278.278,0,0,0-.278.278v10.781A.278.278,0,0,0,498.746,745.49Z" transform="translate(-498.468 -733.886)" fill="#fff"/>
      </g>
    </g>
  </g>
  <g id="Group_2422" data-name="Group 2422" transform="translate(0 0)">
    <path id="Path_16550" data-name="Path 16550" d="M502.08,726.96a2.018,2.018,0,1,1-2.017-2.018A2.018,2.018,0,0,1,502.08,726.96Z" transform="translate(-498.045 -724.942)" fill="#fff"/>
  </g>
</svg>
