<svg id="Group_2416" data-name="Group 2416" xmlns="http://www.w3.org/2000/svg" width="19.46" height="16.029" viewBox="0 0 19.46 16.029">
  <g id="Group_2415" data-name="Group 2415" transform="translate(0 0)">
    <g id="Group_2410" data-name="Group 2410">
      <path id="Path_16543" data-name="Path 16543" d="M291.421,728.689a8.007,8.007,0,0,1-1.966.562c.317-.053.784-.626.97-.858a3.617,3.617,0,0,0,.655-1.192c.017-.034.03-.076,0-.1a.112.112,0,0,0-.1.009,10.054,10.054,0,0,1-2.335.894.155.155,0,0,1-.161-.043,1.974,1.974,0,0,0-.2-.209,4.116,4.116,0,0,0-1.131-.693,3.941,3.941,0,0,0-1.735-.28,4.151,4.151,0,0,0-1.646.465,4.248,4.248,0,0,0-1.328,1.084,4.081,4.081,0,0,0-.793,1.589,4.307,4.307,0,0,0-.042,1.677c.013.094,0,.107-.08.094a12.472,12.472,0,0,1-8.024-4.084c-.094-.107-.145-.107-.221.008a4.069,4.069,0,0,0,.694,4.807c.157.149.319.3.493.434a4.1,4.1,0,0,1-1.548-.434c-.094-.059-.141-.025-.149.081a2.447,2.447,0,0,0,.026.46,4.114,4.114,0,0,0,2.535,3.279,2.349,2.349,0,0,0,.515.157,4.584,4.584,0,0,1-1.519.047c-.111-.021-.153.034-.111.14a4.273,4.273,0,0,0,3.19,2.672c.145.025.29.025.435.059-.009.013-.017.013-.026.026a5.054,5.054,0,0,1-2.179,1.155,7.8,7.8,0,0,1-3.309.424c-.178-.026-.216-.024-.264,0s-.006.073.051.119c.226.149.455.281.689.409a10.937,10.937,0,0,0,2.212.885,11.783,11.783,0,0,0,11.438-2.675,12,12,0,0,0,3.165-8.757c0-.126.149-.2.237-.262a7.707,7.707,0,0,0,1.549-1.619.47.47,0,0,0,.1-.311v-.017C291.494,728.638,291.5,728.654,291.421,728.689Z" transform="translate(-272.033 -726.768)" fill="#fff"/>
    </g>
    <g id="Group_2411" data-name="Group 2411" transform="translate(5.779 15.96)">
      <path id="Path_16544" data-name="Path 16544" d="M281.951,754.157Z" transform="translate(-281.951 -754.157)" fill="#fff" fill-rule="evenodd"/>
    </g>
    <g id="Group_2412" data-name="Group 2412" transform="translate(5.631 15.96)">
      <path id="Path_16545" data-name="Path 16545" d="M281.845,754.157c-.025,0-.321,0,0,0Z" transform="translate(-281.696 -754.157)" fill="#fff" fill-rule="evenodd"/>
    </g>
    <g id="Group_2413" data-name="Group 2413" transform="translate(6.435 15.962)">
      <path id="Path_16546" data-name="Path 16546" d="M283.076,754.176c0-.033.344,0,0,0C283.076,754.159,283.118,754.176,283.076,754.176Z" transform="translate(-283.076 -754.161)" fill="#fff" fill-rule="evenodd"/>
    </g>
    <g id="Group_2414" data-name="Group 2414" transform="translate(13.237 0.024)">
      <path id="Path_16547" data-name="Path 16547" d="M294.83,726.809a.071.071,0,0,1-.081,0Z" transform="translate(-294.749 -726.809)" fill="#fff" fill-rule="evenodd"/>
    </g>
  </g>
</svg>
