<svg id="Group_2409" data-name="Group 2409" xmlns="http://www.w3.org/2000/svg" width="19.696" height="13.787" viewBox="0 0 19.696 13.787">
  <g id="Group_2408" data-name="Group 2408" transform="translate(0 0)">
    <g id="Group_2407" data-name="Group 2407">
      <path id="Path_16542" data-name="Path 16542" d="M230.48,734.934a4.288,4.288,0,0,0-4.288-4.288H215.072a4.288,4.288,0,0,0-4.288,4.288v5.212a4.288,4.288,0,0,0,4.288,4.288h11.121a4.287,4.287,0,0,0,4.288-4.288Zm-7.016,2.869-4.435,2.432c-.193.1-.367-.035-.367-.254v-4.993c0-.222.179-.361.372-.251L223.5,737.3A.29.29,0,0,1,223.464,737.8Z" transform="translate(-210.784 -730.646)" fill="#fff"/>
    </g>
  </g>
</svg>
