<svg xmlns="http://www.w3.org/2000/svg" width="107.404" height="90.652" viewBox="0 0 107.404 90.652">
  <g id="Group_76" data-name="Group 76" transform="translate(-477.725 3019.553)">
    <path id="path214" d="M577.1-2948.284h-91.35a7.027,7.027,0,0,1-7.027-7.027v-56.215a7.027,7.027,0,0,1,7.027-7.027H577.1a7.028,7.028,0,0,1,7.027,7.027v56.215A7.027,7.027,0,0,1,577.1-2948.284Z" transform="translate(0)" fill="none" stroke="#fafafa" stroke-linecap="round" stroke-linejoin="round" stroke-miterlimit="10" stroke-width="2"/>
    <path id="path216" d="M631.469-2897.431H547.145a3.513,3.513,0,0,1-3.513-3.514v-49.188a3.514,3.514,0,0,1,3.513-3.514h84.323a3.514,3.514,0,0,1,3.513,3.514v49.188A3.513,3.513,0,0,1,631.469-2897.431Z" transform="translate(-57.88 -57.88)" fill="none" stroke="#fafafa" stroke-linecap="round" stroke-linejoin="round" stroke-miterlimit="10" stroke-width="2"/>
    <path id="path218" d="M908.152-2773.7l12.422-22.022" transform="translate(-382.936 -198.703)" fill="none" stroke="#fafafa" stroke-linecap="round" stroke-linejoin="round" stroke-miterlimit="10" stroke-width="2"/>
    <path id="path220" d="M1065.783-2750.4l9.458-7.792-9.458-7.791" transform="translate(-523.501 -225.229)" fill="none" stroke="#fafafa" stroke-linecap="round" stroke-linejoin="round" stroke-miterlimit="10" stroke-width="2"/>
    <path id="path222" d="M787.363-2750.4l-9.458-7.792,9.458-7.791" transform="translate(-266.79 -225.229)" fill="none" stroke="#fafafa" stroke-linecap="round" stroke-linejoin="round" stroke-miterlimit="10" stroke-width="2"/>
    <path id="path224" d="M787.54-2355.419v1.563a2.819,2.819,0,0,1-2.811,2.811H741.162a2.819,2.819,0,0,1-2.811-2.811v-1.563a5.257,5.257,0,0,1,4.357-5.182l14.967-2.653v-6.167h10.54v6.167l14.967,2.653A5.257,5.257,0,0,1,787.54-2355.419Z" transform="translate(-231.518 -578.856)" fill="none" stroke="#fafafa" stroke-linecap="round" stroke-linejoin="round" stroke-miterlimit="10" stroke-width="2"/>
  </g>
</svg>
