<svg xmlns="http://www.w3.org/2000/svg" width="75.479" height="114.632" viewBox="0 0 75.479 114.632">
  <g id="Group_65" data-name="Group 65" transform="translate(-1581.105 3241.014)">
    <path id="path32" d="M1548.734-2013.876a15.215,15.215,0,0,1-15.217,15.215H1518.38a19.992,19.992,0,0,1-17.471-10.3,256.163,256.163,0,0,0-21.218-32.169,6.252,6.252,0,0,1,.969-8.661l.1-.072a6.268,6.268,0,0,1,8.933.994c3,3.859,5.9,7.8,8.669,11.813a1.242,1.242,0,0,0,2.268-.7v-48.51a5.92,5.92,0,0,1,5.892-5.946,5.8,5.8,0,0,1,5.7,5.792v39.475a1.229,1.229,0,0,0,1.229,1.229h0a1.229,1.229,0,0,0,1.229-1.229v-14.317a5.368,5.368,0,0,1,5-5.413,5.272,5.272,0,0,1,5.532,5.26v17.63a1.229,1.229,0,0,0,1.229,1.229h0a1.229,1.229,0,0,0,1.229-1.229v-14.591a5.012,5.012,0,0,1,4.668-5.053,4.922,4.922,0,0,1,5.164,4.911v17.541a1.229,1.229,0,0,0,1.229,1.229h0a1.229,1.229,0,0,0,1.229-1.229v-15.073a4.473,4.473,0,0,1,3.967-4.5,4.392,4.392,0,0,1,4.811,4.368Zm-4.17-49.219a6.851,6.851,0,0,0-4.844,2,7.384,7.384,0,0,0-6.93-4.872,7.355,7.355,0,0,0-5.258,2.212,7.72,7.72,0,0,0-7.372-5.46,7.708,7.708,0,0,0-5.254,2.081v-19.361a8.263,8.263,0,0,0-8.252-8.252,8.261,8.261,0,0,0-8.252,8.252v44.815q-3.159-4.31-6.638-8.767a8.767,8.767,0,0,0-6.942-3.369,8.805,8.805,0,0,0-5.569,1.991l-.111.081a8.7,8.7,0,0,0-1.359,12.079,254.488,254.488,0,0,1,21.042,31.926,22.414,22.414,0,0,0,19.585,11.552H1533.4a17.97,17.97,0,0,0,18.024-17.768v-42.3a6.867,6.867,0,0,0-6.861-6.847" transform="translate(105.16 -1130.2)" fill="#fafafa"/>
    <path id="path34" d="M1684.705-2199.549h0a1.228,1.228,0,0,1-1.229-1.229v-6.4a1.228,1.228,0,0,1,1.229-1.229h0a1.228,1.228,0,0,1,1.227,1.229v6.4a1.228,1.228,0,0,1-1.227,1.229" transform="translate(-73.026 -1032.606)" fill="#fafafa"/>
    <path id="path38" d="M1553.8-2123.974h0a1.228,1.228,0,0,1-1.678.451l-5.545-3.2a1.229,1.229,0,0,1-.449-1.678h0a1.228,1.228,0,0,1,1.678-.449l5.543,3.2a1.228,1.228,0,0,1,.451,1.678" transform="translate(45.042 -1100.771)" fill="#fafafa"/>
    <path id="path40" d="M1533.549-2048.406h0a1.229,1.229,0,0,1-1.229,1.229h-6.4a1.229,1.229,0,0,1-1.229-1.229h0a1.229,1.229,0,0,1,1.229-1.229h6.4a1.229,1.229,0,0,1,1.229,1.229" transform="translate(63.308 -1168.928)" fill="#fafafa"/>
    <path id="path42" d="M1553.8-1992.265h0a1.23,1.23,0,0,1-.451,1.68l-5.543,3.2a1.228,1.228,0,0,1-1.678-.45h0a1.229,1.229,0,0,1,.449-1.678l5.545-3.2a1.228,1.228,0,0,1,1.678.451" transform="translate(45.042 -1217.658)" fill="#fafafa"/>
    <path id="path44" d="M1781.942-1992.265h0a1.228,1.228,0,0,1,1.678-.451l5.545,3.2a1.23,1.23,0,0,1,.449,1.678h0a1.228,1.228,0,0,1-1.678.45l-5.543-3.2a1.23,1.23,0,0,1-.451-1.68" transform="translate(-157.427 -1217.658)" fill="#fafafa"/>
    <path id="path46" d="M1796.982-2048.406h0a1.229,1.229,0,0,1,1.229-1.229h6.4a1.229,1.229,0,0,1,1.229,1.229h0a1.229,1.229,0,0,1-1.229,1.229h-6.4a1.229,1.229,0,0,1-1.229-1.229" transform="translate(-170.482 -1168.928)" fill="#fafafa"/>
    <path id="path48" d="M1781.942-2123.974h0a1.228,1.228,0,0,1,.451-1.678l5.543-3.2a1.228,1.228,0,0,1,1.678.449h0a1.228,1.228,0,0,1-.449,1.678l-5.545,3.2a1.228,1.228,0,0,1-1.678-.451" transform="translate(-157.427 -1100.771)" fill="#fafafa"/>
    <path id="path50" d="M1740.844-2179.3h0a1.231,1.231,0,0,1-.449-1.68l3.2-5.543a1.229,1.229,0,0,1,1.68-.449h0a1.228,1.228,0,0,1,.449,1.678l-3.2,5.543a1.23,1.23,0,0,1-1.68.451" transform="translate(-121.755 -1050.869)" fill="#fafafa"/>
    <path id="path52" d="M1609.128-2179.3h0a1.23,1.23,0,0,1-1.68-.451l-3.2-5.543a1.229,1.229,0,0,1,.449-1.678h0a1.23,1.23,0,0,1,1.68.449l3.2,5.543a1.231,1.231,0,0,1-.449,1.68" transform="translate(-4.86 -1050.869)" fill="#fafafa"/>
  </g>
</svg>
