<svg xmlns="http://www.w3.org/2000/svg" width="1457.344" height="207.215" viewBox="0 0 1457.344 207.215">
  <g id="Group_3" data-name="Group 3" transform="translate(-228 -571)">
    <g id="Group_2" data-name="Group 2" transform="translate(242 571)">
      <g id="SelfTaughtDev_logo" data-name="SelfTaughtDev logo" transform="translate(0)">
        <g id="Group_1" data-name="Group 1">
          <path id="Path_1" data-name="Path 1" d="M150.723,554.166l-37.057-38.077,37.057-38.249h30.088l-37.227,38.249,37.227,38.077Z" transform="translate(-127.666 -415.628)" fill="#3bb99b"/>
          <path id="Path_2" data-name="Path 2" d="M237.576,571.374a32.946,32.946,0,0,1-13.6,12.409q-9.011,4.679-21.928,4.676a56.9,56.9,0,0,1-22.778-4.336,38.475,38.475,0,0,1-16.065-12.493,36.031,36.031,0,0,1-6.885-19.039h25.5a19.488,19.488,0,0,0,5.866,12.155q5.013,4.845,13.345,4.846,7.479,0,11.473-4a13.927,13.927,0,0,0,3.994-10.285,13.48,13.48,0,0,0-3.23-9.263,23.579,23.579,0,0,0-8.159-5.867q-4.931-2.205-13.6-5.1a133.893,133.893,0,0,1-18.359-7.393,33.913,33.913,0,0,1-12.155-10.625q-5.016-6.968-5.016-18.189,0-15.47,11.135-24.394t29.492-8.923q19.037,0,30.344,9.178t12.835,24.478H213.946a18.011,18.011,0,0,0-5.44-10.625q-4.422-4.161-12.069-4.164-6.629,0-10.709,3.484t-4.08,10.115a12.553,12.553,0,0,0,3.146,8.753,23.968,23.968,0,0,0,7.989,5.7,130.644,130.644,0,0,0,13.175,4.93,175.068,175.068,0,0,1,18.783,7.649,33.087,33.087,0,0,1,12.325,10.709q5.1,7.139,5.1,18.7A32.545,32.545,0,0,1,237.576,571.374Z" transform="translate(-90.939 -426.291)" fill="#fff"/>
          <path id="Path_3" data-name="Path 3" d="M301.5,532.527H232.489q.51,12.581,6.8,18.531a21.867,21.867,0,0,0,15.639,5.95q8.327,0,13.855-4.082a18.062,18.062,0,0,0,7.054-11.047h25.328a40.526,40.526,0,0,1-7.989,17.679A41.74,41.74,0,0,1,277.452,571.8a53.862,53.862,0,0,1-45.811-1.446,41.226,41.226,0,0,1-16.659-16.743q-5.951-10.88-5.95-25.67t5.95-25.752a40.563,40.563,0,0,1,16.659-16.745,50.757,50.757,0,0,1,24.478-5.78q13.937,0,24.394,5.78a40.758,40.758,0,0,1,16.149,15.895,46.15,46.15,0,0,1,5.694,23.034A45.617,45.617,0,0,1,301.5,532.527Zm-29.322-28.048a23.022,23.022,0,0,0-16.065-5.95,23.555,23.555,0,0,0-16.319,5.95q-6.629,5.951-7.309,17.509h45.727Q278.726,510.43,272.183,504.479Z" transform="translate(-44.888 -414.047)" fill="#fff"/>
          <path id="Path_4" data-name="Path 4" d="M292.058,463.372V589.163H268.09V463.372h23.968Z" transform="translate(6.374 -428.186)" fill="#fff"/>
          <path id="Path_5" data-name="Path 5" d="M328.305,484.336q-4.251,3.743-4.25,13.091v.168h19.039v20.23H324.055v73.943H300.087V517.826H288.018V497.6h12.069v-2.21q0-16.829,9.605-25.924t28.474-9.092q3.225,0,4.93.168v20.74Q332.552,480.6,328.305,484.336Z" transform="translate(23.671 -430.792)" fill="#fff"/>
          <path id="Path_6" data-name="Path 6" d="M333.381,623.392l.071-112.042H306.673v-20.23h77.5v20.23H357.15l.018,112.042Z" transform="translate(73.186 -461.316)" fill="#fff"/>
          <path id="Path_7" data-name="Path 7" d="M420.769,485.273A30.552,30.552,0,0,1,432.838,500.4V480.852h23.8v94.173h-23.8V555.306a31,31,0,0,1-12.069,15.213q-8.5,5.7-20.4,5.7a40.428,40.428,0,0,1-21.418-5.781,39.016,39.016,0,0,1-14.873-16.743q-5.355-10.964-5.356-25.754t5.356-25.752a39.053,39.053,0,0,1,14.873-16.745,40.477,40.477,0,0,1,21.418-5.78Q412.267,479.663,420.769,485.273Zm-30.938,22.608q-6.8,7.308-6.8,20.057t6.8,19.974q6.795,7.226,18.019,7.224a23.712,23.712,0,0,0,17.933-7.4q7.053-7.394,7.055-19.8,0-12.575-7.055-19.971a23.712,23.712,0,0,0-17.933-7.4Q396.63,500.569,389.831,507.882Z" transform="translate(99.043 -414.048)" fill="#fff"/>
          <path id="Path_8" data-name="Path 8" d="M513.67,480.3v94.173H489.7V555.435a30.03,30.03,0,0,1-12.325,14.875,36.654,36.654,0,0,1-19.8,5.354q-16.319,0-26.008-10.709t-9.689-29.918V480.3h23.8v52.018q0,11.219,5.78,17.423t15.639,6.206q10.367,0,16.489-6.63t6.12-19.04V480.3H513.67Z" transform="translate(153.86 -413.495)" fill="#fff"/>
          <path id="Path_9" data-name="Path 9" d="M542.162,485.271A30.574,30.574,0,0,1,554.232,500.4V480.85h23.8v94.515a52.29,52.29,0,0,1-5.184,23.544,38.238,38.238,0,0,1-15.467,16.4q-10.289,5.949-24.9,5.95-20.4,0-32.978-9.689t-15.3-26.346h23.627a19.516,19.516,0,0,0,7.9,11.133q5.867,3.993,15.045,4,10.538,0,17-6.2t6.46-18.785V555.308a31,31,0,0,1-12.069,15.213q-8.5,5.7-20.4,5.7a40.433,40.433,0,0,1-21.419-5.781,39.015,39.015,0,0,1-14.873-16.743q-5.355-10.964-5.356-25.754t5.356-25.752a39.041,39.041,0,0,1,14.873-16.745,40.478,40.478,0,0,1,21.419-5.78Q533.659,479.659,542.162,485.271ZM511.225,507.88q-6.8,7.308-6.8,20.057t6.8,19.975q6.8,7.226,18.019,7.224a23.712,23.712,0,0,0,17.933-7.4q7.056-7.395,7.055-19.8,0-12.575-7.055-19.971a23.712,23.712,0,0,0-17.933-7.4Q518.021,500.568,511.225,507.88Z" transform="translate(204.411 -414.047)" fill="#fff"/>
          <path id="Path_10" data-name="Path 10" d="M626.281,504.341q9.689,10.709,9.691,30.088v54.734h-23.8V537.147q0-11.219-5.78-17.423t-15.809-6.2q-10.2,0-16.319,6.63t-6.12,19.037v49.976H544.181V463.372h23.966v50.486a30.009,30.009,0,0,1,12.325-14.875,36.649,36.649,0,0,1,19.8-5.354Q616.59,493.63,626.281,504.341Z" transform="translate(260.02 -428.186)" fill="#fff"/>
          <path id="Path_11" data-name="Path 11" d="M658.631,564.724v20.568H646.052q-15.809,0-24.222-7.649t-8.415-25.5v-40.8H600.325v-20.23h13.089V467.831h23.968v23.288h21.079v20.23H637.382v41.137q0,6.8,2.72,9.519t9.179,2.72h9.349Z" transform="translate(308.753 -424.316)" fill="#fff"/>
          <path id="Path_12" data-name="Path 12" d="M738.81,557.749a52.052,52.052,0,0,1-21.672,21.165q-14.195,7.565-33.744,7.564H640.729V466.466h42.665q19.55,0,33.744,7.4A51.167,51.167,0,0,1,738.81,494.77q7.481,13.511,7.479,31.534Q746.287,544.149,738.81,557.749Zm-27.452-2.89q10.617-10.2,10.625-28.556,0-18.527-10.625-28.728t-30.006-10.2H664.694v77.686h16.659Q700.734,565.061,711.358,554.859Z" transform="translate(343.823 -425.501)" fill="#fff"/>
          <path id="Path_13" data-name="Path 13" d="M796.808,532.527H727.793q.51,12.581,6.8,18.531a21.867,21.867,0,0,0,15.639,5.95q8.328,0,13.855-4.082a18.062,18.062,0,0,0,7.054-11.047h25.328a40.546,40.546,0,0,1-7.988,17.679A41.747,41.747,0,0,1,772.756,571.8a53.862,53.862,0,0,1-45.811-1.446,41.227,41.227,0,0,1-16.659-16.743q-5.952-10.88-5.95-25.67t5.95-25.752a40.563,40.563,0,0,1,16.659-16.745,50.763,50.763,0,0,1,24.478-5.78q13.937,0,24.392,5.78a40.763,40.763,0,0,1,16.151,15.895,46.452,46.452,0,0,1,4.842,31.192Zm-29.324-28.048a23.017,23.017,0,0,0-16.063-5.95,23.555,23.555,0,0,0-16.319,5.95q-6.63,5.951-7.31,17.509H773.52Q774.03,510.43,767.485,504.479Z" transform="translate(399.035 -414.047)" fill="#fff"/>
          <path id="Path_14" data-name="Path 14" d="M808.388,550.5l23.8-70.207h25.5l-34.846,94.173H793.6L758.752,480.3H784.42Z" transform="translate(446.267 -413.495)" fill="#fff"/>
          <path id="Path_15" data-name="Path 15" d="M881.263,444.536,835.2,636.28H812.078l46.067-191.744h23.118Z" transform="translate(492.554 -444.536)" fill="#3bb99b"/>
          <path id="Path_16" data-name="Path 16" d="M850.39,477.841h29.92l37.227,38.249-37.229,38.075h-29.92l37.057-38.077Z" transform="translate(525.807 -415.627)" fill="#3bb99b"/>
        </g>
      </g>
    </g>
  </g>
</svg>
